<svg xmlns="http://www.w3.org/2000/svg" version="1.0" width="4.3em" height="4.3em" viewBox="0 0 319.000000 315.000000" preserveAspectRatio="xMidYMid meet">
<metadata>
Created by potrace 1.10, written by Peter Selinger 2001-2011
</metadata>
<g transform="translate(0.000000,315.000000) scale(0.100000,-0.100000)" fill="#000000" stroke="none">
<path d="M376 2740 c-49 -59 -104 -277 -115 -455 -5 -98 -9 -114 -32 -145 -57 -75 -95 -183 -118 -337 -25 -163 -5 -810 29 -945 35 -139 70 -217 123 -275 11 -13 18 -26 14 -29 -3 -3 -34 -16 -68 -29 -35 -12 -65 -27 -67 -33 -3 -11 97 16 135 36 14 8 24 8 28 2 6 -10 -35 -30 -118 -57 -59 -19 -75 -39 -23 -29 20 4 64 16 98 27 34 10 63 17 66 14 6 -6 -55 -32 -121 -52 -26 -7 -47 -18 -47 -23 0 -12 -10 -13 99 10 135 30 128 14 -11 -24 -50 -14 -86 -36 -59 -36 10 0 112 22 185 39 66 16 25 -9 -65 -39 -46 -15 -85 -33 -87 -40 -3 -8 1 -11 11 -7 8 3 35 11 58 17 24 6 72 21 107 32 86 28 89 16 5 -16 -125 -47 -129 -49 -111 -53 9 -2 58 10 109 27 113 38 142 34 39 -5 -124 -46 -140 -54 -140 -64 0 -6 30 0 68 13 105 36 183 58 189 53 2 -3 -20 -14 -49 -25 -29 -11 -73 -30 -98 -42 l-45 -21 40 6 c22 4 75 20 118 37 94 36 125 33 36 -4 -35 -15 -82 -34 -104 -44 -100 -41 43 -13 160 32 18 7 18 6 6 -9 -16 -20 -16 -20 28 -7 25 7 32 7 24 -1 -6 -6 -30 -13 -54 -15 -68 -6 -180 -47 -166 -60 1 -2 31 6 66 16 34 11 75 20 90 20 15 0 54 9 87 20 44 15 54 16 39 5 -20 -16 -136 -55 -162 -55 -19 0 -76 -30 -70 -37 3 -3 20 0 39 6 18 6 65 18 103 27 39 9 85 22 104 30 19 8 36 13 38 11 7 -7 -22 -24 -70 -41 -120 -41 -137 -48 -137 -56 0 -5 12 -4 27 1 101 33 235 71 239 67 2 -3 -39 -22 -91 -43 -85 -33 -123 -55 -97 -55 5 0 60 18 122 40 62 22 114 39 116 37 4 -4 -101 -57 -165 -84 -18 -8 -31 -17 -28 -19 3 -3 47 11 97 31 132 52 174 55 71 5 -46 -22 -82 -42 -80 -45 3 -2 45 11 94 30 97 37 162 47 83 13 -27 -11 -48 -24 -48 -29 0 -11 -6 -12 60 6 30 8 62 15 70 15 27 0 -5 -18 -62 -34 -31 -9 -60 -21 -63 -26 -8 -13 4 -13 42 0 35 13 173 18 173 8 0 -4 -15 -12 -32 -18 -28 -8 -23 -9 32 -6 36 3 74 8 85 11 16 6 17 5 5 -4 -11 -8 54 -10 245 -6 427 9 460 10 471 18 6 3 46 7 88 8 42 1 76 5 76 10 0 12 -147 11 -155 -1 -7 -12 -69 -12 -105 0 -18 6 -7 8 43 9 37 1 67 5 67 11 0 6 48 10 124 10 73 0 127 4 131 10 4 6 -33 10 -104 10 -61 0 -111 4 -111 9 0 15 117 22 238 14 119 -9 168 1 60 11 -232 23 -233 23 -70 25 99 1 151 5 147 11 -3 6 -41 11 -83 11 -161 3 -132 17 36 18 113 1 171 4 167 11 -3 6 -48 10 -98 11 -51 0 -110 4 -132 8 -34 7 -26 9 55 12 52 2 134 3 183 2 48 -1 87 2 87 6 0 9 -122 21 -208 21 -31 0 -53 2 -50 5 6 7 100 14 208 16 l85 2 -95 11 -95 10 60 7 c33 3 83 4 110 1 37 -3 47 -2 39 7 -6 6 -41 14 -79 18 -111 10 -46 20 110 17 100 -2 127 -1 95 6 -25 5 -67 9 -95 10 -27 1 -59 5 -70 10 -13 6 23 9 100 10 117 1 136 15 27 19 -100 4 -104 20 -4 20 54 1 92 5 92 11 0 6 -15 10 -32 10 -54 0 -108 12 -102 22 3 5 23 9 43 7 20 -1 54 -1 76 1 35 2 30 4 -33 15 -90 15 -108 30 -24 21 41 -5 62 -3 62 4 0 5 -12 10 -26 10 -21 0 -58 13 -73 26 -2 2 7 18 21 36 77 101 111 219 128 438 12 146 15 719 5 776 -26 145 -81 295 -130 356 -22 28 -27 46 -31 113 -3 44 -16 132 -30 195 -44 200 -94 300 -150 300 -56 0 -233 -94 -358 -190 l-65 -50 -88 34 c-459 175 -582 175 -1057 1 l-100 -36 -25 20 c-112 89 -353 221 -402 221 -18 0 -36 -10 -53 -30z m137 -143 c80 -120 151 -267 129 -267 -5 0 -35 51 -65 113 -54 107 -120 206 -143 214 -6 2 -16 -9 -23 -24 -14 -35 -40 -156 -34 -165 2 -4 20 -5 41 -2 28 3 32 2 17 -5 -11 -5 -30 -10 -42 -10 -45 -2 -22 -21 25 -22 l47 -1 -52 -15 c-32 -9 -53 -21 -53 -30 0 -10 4 -11 19 -3 11 5 35 10 53 9 32 0 31 -1 -14 -15 -63 -19 -68 -32 -10 -28 l47 4 -41 -13 c-53 -18 -66 -26 -59 -38 4 -5 14 -5 26 2 41 21 26 3 -23 -30 l-51 -33 6 88 c6 97 42 251 77 332 22 50 23 51 45 36 13 -8 48 -52 78 -97z m167 -6 c47 -31 113 -84 147 -118 50 -51 63 -60 73 -48 8 10 9 19 0 35 -9 17 -8 21 7 27 10 3 61 23 113 44 53 20 143 51 200 68 l105 30 22 -21 c13 -12 26 -18 30 -14 5 4 0 13 -10 20 -9 7 -17 16 -17 20 0 13 44 5 63 -11 19 -17 19 -17 13 3 -6 20 -3 21 59 22 67 1 80 -10 25 -21 -16 -4 -30 -11 -30 -17 0 -13 46 -3 77 16 12 8 33 14 45 14 22 -1 22 -2 -7 -25 -36 -30 -23 -33 22 -5 18 11 40 17 48 13 13 -4 9 -10 -14 -24 -17 -10 -31 -24 -31 -29 0 -12 8 -8 52 22 26 18 58 24 58 11 0 -5 -15 -16 -33 -27 -19 -11 -27 -21 -19 -23 7 -3 27 6 46 20 23 18 37 23 47 16 12 -8 12 -11 -1 -18 -8 -6 -24 -17 -35 -25 -33 -25 -1 -18 39 9 27 18 42 23 54 16 14 -8 10 -13 -21 -31 -20 -12 -37 -26 -37 -32 0 -11 12 -5 57 28 35 26 49 29 58 14 3 -5 -10 -19 -29 -31 -20 -12 -36 -25 -36 -30 0 -11 56 16 82 38 12 11 22 12 34 5 15 -8 11 -13 -24 -33 -23 -13 -42 -27 -42 -31 0 -13 11 -9 58 23 l45 30 44 -16 c46 -18 50 -24 31 -43 -10 -10 -9 -15 3 -27 13 -14 22 -9 80 47 65 63 205 160 294 205 55 28 57 35 -26 -75 -56 -73 -165 -285 -155 -301 15 -23 35 -9 50 36 47 137 230 391 255 353 37 -55 108 -358 99 -423 l-3 -24 -60 29 c-44 22 -51 28 -27 23 48 -10 40 12 -10 25 -24 6 -52 15 -63 20 -21 10 0 9 75 -6 44 -8 37 13 -8 25 -20 5 -46 12 -57 15 -11 2 4 4 33 3 63 -2 63 13 1 29 l-44 12 49 1 c56 1 54 11 -7 28 l-42 11 43 1 c50 1 54 23 6 31 -17 3 -24 8 -17 13 6 4 18 4 27 1 21 -8 21 16 1 84 -10 31 -22 52 -30 52 -23 0 -81 -85 -148 -216 -48 -96 -59 -126 -50 -135 9 -9 17 -9 35 3 20 14 27 13 68 -3 25 -9 71 -27 103 -39 74 -29 99 -59 86 -103 -17 -62 -66 -89 -389 -218 -168 -66 -350 -139 -405 -161 -221 -91 -438 -102 -639 -33 -45 15 -322 129 -391 160 -16 8 -91 39 -165 70 -207 87 -260 127 -260 199 0 27 7 41 36 64 47 39 173 89 184 73 4 -8 26 -11 56 -9 47 3 49 4 47 32 -3 42 -84 201 -147 289 -31 43 -56 81 -56 83 0 8 101 -51 200 -115z m-245 -91 c-27 -12 -35 -12 -35 0 0 6 12 10 28 9 24 0 25 -1 7 -9z m-110 -369 c3 -16 15 -37 26 -47 28 -25 24 -31 -24 -38 -23 -4 -57 -15 -75 -26 -18 -11 -35 -20 -37 -20 -3 0 4 18 15 40 11 22 23 40 26 40 2 0 0 -9 -6 -20 -18 -34 -2 -22 30 22 33 45 33 65 0 27 -22 -24 -17 -12 10 29 20 29 27 28 35 -7z m2375 -25 c0 -5 -10 -1 -21 10 -22 19 -22 19 -11 -2 13 -24 42 -51 42 -38 0 11 23 -24 38 -59 l12 -28 -32 25 c-18 13 -46 27 -63 31 -16 3 -41 8 -54 11 l-24 5 30 32 c17 18 33 41 37 52 7 19 8 19 26 -5 11 -14 20 -29 20 -34z m-23 -111 c59 -30 95 -76 120 -155 16 -49 17 -95 15 -405 -3 -386 -13 -525 -44 -630 -54 -185 -153 -283 -412 -409 -270 -132 -496 -230 -581 -252 -122 -33 -231 29 -270 151 -17 54 -19 103 -23 520 -4 509 0 548 57 669 22 45 51 83 101 130 77 72 134 105 285 161 55 20 190 73 300 118 363 146 363 146 452 102z m-2084 -54 c89 -38 253 -108 365 -154 112 -47 222 -98 245 -114 121 -84 196 -204 220 -353 10 -63 12 -198 11 -520 -2 -409 -3 -439 -23 -500 -28 -88 -52 -123 -97 -145 -88 -42 -153 -21 -557 181 -281 140 -342 177 -410 243 -87 84 -148 223 -168 384 -7 53 -12 256 -13 482 -1 389 -1 390 22 439 25 53 40 71 81 98 44 30 48 24 50 -74 1 -51 6 -97 12 -103 7 -7 10 23 7 98 l-3 107 48 0 c37 0 85 -16 210 -69z m734 -266 c31 -8 88 -15 126 -15 59 0 71 -3 88 -22 16 -20 18 -20 19 -5 0 9 -4 17 -10 17 -5 0 -10 4 -10 8 0 7 85 32 110 32 5 0 -16 -23 -46 -52 -57 -54 -111 -149 -134 -238 l-12 -45 -27 80 c-28 85 -90 178 -153 227 -38 31 -30 34 49 13z m143 -1400 c0 -52 83 -147 139 -160 42 -9 39 -21 -9 -33 -23 -5 -40 -6 -40 -1 0 5 5 9 12 9 6 0 9 3 6 6 -4 3 -17 -1 -30 -9 -12 -8 -44 -15 -69 -16 -37 -1 -50 4 -69 24 -24 25 -40 32 -40 17 0 -5 12 -14 26 -21 15 -6 24 -14 21 -17 -3 -3 -19 2 -36 10 -35 19 -45 20 -35 5 4 -8 -1 -9 -17 -4 -41 12 -41 21 1 34 46 14 87 63 110 130 13 41 30 55 30 26z m475 -205 c3 -5 4 -10 1 -10 -3 0 -8 5 -11 10 -3 6 -4 10 -1 10 3 0 8 -4 11 -10z"/>
<path d="M1281 2601 c3 -8 16 -21 29 -30 18 -12 22 -13 19 -2 -3 8 -16 21 -29 30 -18 12 -22 13 -19 2z"/>
<path d="M1210 2580 c-8 -5 -12 -12 -9 -15 8 -8 39 5 39 16 0 11 -11 11 -30 -1z"/>
<path d="M1130 2550 c0 -12 40 -33 48 -25 4 4 -2 13 -12 21 -23 16 -36 18 -36 4z"/>
<path d="M1250 2544 c0 -9 5 -14 12 -12 18 6 21 28 4 28 -9 0 -16 -7 -16 -16z"/>
<path d="M2270 2550 c0 -7 3 -10 7 -7 3 4 3 10 0 14 -4 3 -7 0 -7 -7z"/>
<path d="M690 2540 c0 -7 3 -10 7 -7 3 4 3 10 0 14 -4 3 -7 0 -7 -7z"/>
<path d="M1387 2536 c-105 -39 -112 -113 -13 -151 64 -25 213 -18 252 11 15 11 32 27 38 36 17 28 -5 69 -48 91 -50 26 -175 33 -229 13z"/>
<path d="M1080 2531 c0 -12 42 -42 49 -36 5 6 -29 45 -41 45 -4 0 -8 -4 -8 -9z"/>
<path d="M2230 2532 c0 -5 7 -15 15 -22 8 -7 15 -8 15 -2 0 5 -7 15 -15 22 -8 7 -15 8 -15 2z"/>
<path d="M2197 2504 c-4 -10 -18 -34 -32 -53 -14 -19 -25 -41 -25 -50 0 -8 15 9 34 38 30 49 34 52 44 35 9 -15 11 -16 12 -3 0 8 -6 23 -13 34 -13 17 -14 17 -20 -1z"/>
<path d="M1030 2495 c7 -8 19 -15 27 -15 13 0 13 3 3 15 -7 8 -19 15 -27 15 -13 0 -13 -3 -3 -15z"/>
<path d="M2147 2472 c-15 -16 -27 -34 -27 -40 0 -7 14 3 31 23 38 43 34 57 -4 17z"/>
<path d="M761 2485 c0 -15 58 -82 59 -68 0 7 -13 27 -30 45 -16 18 -29 29 -29 23z"/>
<path d="M980 2475 c0 -8 2 -15 4 -15 2 0 11 -3 20 -6 23 -9 20 13 -4 26 -16 9 -20 8 -20 -5z"/>
<path d="M1938 2462 c-52 -38 -47 -47 7 -14 25 15 45 30 45 34 0 14 -14 8 -52 -20z"/>
<path d="M755 2430 c9 -16 20 -30 26 -30 5 0 2 14 -8 30 -9 17 -21 30 -25 30 -5 0 -2 -13 7 -30z"/>
<path d="M2186 2438 c-9 -12 -16 -32 -16 -43 1 -14 6 -10 21 18 23 44 20 60 -5 25z"/>
<path d="M945 2440 c3 -5 11 -10 16 -10 6 0 7 5 4 10 -3 6 -11 10 -16 10 -6 0 -7 -4 -4 -10z"/>
<path d="M900 2305 c-8 -2 -32 -6 -52 -10 -51 -8 -98 -49 -98 -85 0 -59 98 -97 221 -87 94 8 159 46 159 92 0 25 -33 59 -72 74 -29 11 -135 22 -158 16z"/>
<path d="M1367 2286 c-50 -19 -67 -34 -67 -62 0 -55 83 -88 209 -83 72 4 83 7 111 34 38 36 37 69 -3 99 -23 17 -45 21 -120 24 -60 1 -105 -3 -130 -12z"/>
<path d="M1895 2255 c-40 -14 -75 -47 -75 -70 0 -7 9 -24 20 -38 65 -82 310 -71 360 16 13 24 13 28 -10 53 -14 15 -39 33 -57 40 -42 18 -186 17 -238 -1z"/>
<path d="M406 2214 c1 -6 -3 -17 -9 -23 -22 -22 -1 -18 33 6 33 23 33 25 8 19 -14 -3 -28 -3 -31 2 -2 4 -3 2 -1 -4z"/>
<path d="M2555 2206 c17 -13 32 -22 35 -19 7 6 -39 43 -54 43 -6 0 3 -11 19 -24z"/>
<path d="M443 2177 c-57 -40 -46 -48 13 -10 25 17 42 33 38 36 -5 3 -28 -9 -51 -26z"/>
<path d="M2470 2205 c0 -12 70 -75 82 -75 7 1 -3 14 -22 30 -38 33 -34 38 11 14 39 -20 48 -12 13 11 -14 9 -35 15 -45 12 -10 -3 -19 -1 -19 4 0 5 -4 9 -10 9 -5 0 -10 -2 -10 -5z"/>
<path d="M471 2148 c-25 -18 -40 -33 -33 -36 6 -2 32 13 58 32 58 44 36 47 -25 4z"/>
<path d="M2467 2140 c23 -22 48 -40 55 -40 15 1 -72 79 -87 79 -5 0 9 -17 32 -39z"/>
<path d="M2376 2158 c7 -17 104 -92 104 -81 0 13 -13 27 -56 61 -45 34 -56 39 -48 20z"/>
<path d="M501 2118 c-25 -18 -40 -33 -33 -36 13 -4 82 46 82 59 0 12 1 13 -49 -23z"/>
<path d="M2321 2143 c5 -15 109 -96 109 -85 0 11 -47 54 -84 78 -16 10 -27 13 -25 7z"/>
<path d="M546 2102 c-37 -25 -58 -53 -39 -52 12 1 100 80 88 80 -5 -1 -28 -13 -49 -28z"/>
<path d="M593 2089 c-24 -17 -43 -37 -43 -45 0 -10 15 -2 45 23 25 20 45 41 45 45 0 11 1 11 -47 -23z"/>
<path d="M2325 2075 c22 -19 45 -35 50 -34 6 0 -8 15 -29 34 -22 19 -44 35 -50 35 -6 -1 7 -16 29 -35z"/>
<path d="M618 2059 c-43 -32 -33 -43 12 -13 22 15 40 28 40 30 0 10 -28 1 -52 -17z"/>
<path d="M2290 2044 c17 -15 34 -23 38 -19 9 9 -35 45 -55 45 -9 0 -2 -11 17 -26z"/>
<path d="M1345 2045 c-63 -22 -89 -68 -69 -120 20 -50 177 -80 276 -51 55 16 108 60 108 90 0 23 -41 66 -77 81 -45 19 -184 19 -238 0z"/>
<path d="M648 2029 c-19 -11 -24 -29 -8 -29 5 0 14 9 20 20 12 23 12 23 -12 9z"/>
<path d="M693 2015 c-15 -13 -23 -25 -17 -25 6 0 21 11 34 25 30 32 19 32 -17 0z"/>
<path d="M2240 2020 c33 -26 48 -26 25 0 -10 11 -25 20 -34 20 -12 0 -9 -6 9 -20z"/>
<path d="M735 2000 c-16 -16 -24 -30 -19 -30 6 0 23 14 39 30 16 17 24 30 19 30 -6 0 -23 -13 -39 -30z"/>
<path d="M2200 1995 c13 -14 26 -23 28 -20 7 7 -29 45 -41 45 -6 0 0 -11 13 -25z"/>
<path d="M784 1986 c-16 -13 -25 -28 -21 -32 4 -4 20 4 34 19 35 34 24 45 -13 13z"/>
<path d="M2144 1974 c15 -14 31 -23 34 -20 9 9 -30 46 -47 46 -11 -1 -8 -8 13 -26z"/>
<path d="M2088 1958 c12 -12 25 -18 29 -14 4 4 -1 14 -11 22 -31 22 -43 17 -18 -8z"/>
<path d="M810 1955 c-21 -25 -1 -31 23 -7 17 18 18 22 5 22 -8 0 -21 -7 -28 -15z"/>
<path d="M2010 1962 c0 -5 14 -18 30 -30 35 -27 40 -15 7 16 -24 23 -37 28 -37 14z"/>
<path d="M1978 1919 c19 -17 37 -27 40 -24 8 8 -44 55 -61 55 -7 0 3 -14 21 -31z"/>
<path d="M855 1929 c-4 -6 -5 -13 -2 -16 7 -7 27 6 27 18 0 12 -17 12 -25 -2z"/>
<path d="M900 1915 c-10 -12 -10 -15 3 -15 8 0 17 7 21 15 3 8 2 15 -3 15 -5 0 -14 -7 -21 -15z"/>
<path d="M1900 1922 c0 -13 61 -55 68 -47 4 4 -6 18 -23 31 -31 25 -45 30 -45 16z"/>
<path d="M950 1884 c0 -8 5 -12 10 -9 6 3 10 10 10 16 0 5 -4 9 -10 9 -5 0 -10 -7 -10 -16z"/>
<path d="M1880 1882 c0 -10 21 -32 32 -32 16 0 8 19 -12 30 -11 6 -20 7 -20 2z"/>
<path d="M1000 1865 c-7 -8 -8 -15 -2 -15 5 0 15 7 22 15 7 8 8 15 2 15 -5 0 -15 -7 -22 -15z"/>
<path d="M1060 1845 c-7 -9 -11 -18 -8 -20 3 -3 11 1 18 10 7 9 11 18 8 20 -3 3 -11 -1 -18 -10z"/>
<path d="M1840 1845 c7 -8 17 -15 22 -15 6 0 5 7 -2 15 -7 8 -17 15 -22 15 -6 0 -5 -7 2 -15z"/>
<path d="M1117 1839 c-9 -6 -17 -18 -17 -27 0 -14 4 -13 22 6 24 24 22 36 -5 21z"/>
<path d="M1770 1840 c0 -5 9 -14 20 -20 22 -12 27 -1 8 18 -14 14 -28 16 -28 2z"/>
<path d="M1155 1810 c-18 -20 -15 -38 4 -25 15 9 33 45 23 45 -5 0 -17 -9 -27 -20z"/>
<path d="M1720 1820 c0 -5 9 -14 20 -20 22 -12 27 -1 8 18 -14 14 -28 16 -28 2z"/>
<path d="M1210 1795 c-18 -19 -20 -25 -8 -25 9 0 23 11 32 25 9 14 13 25 8 25 -5 0 -19 -11 -32 -25z"/>
<path d="M1679 1790 c30 -26 49 -26 26 0 -10 11 -25 20 -34 20 -12 -1 -10 -5 8 -20z"/>
<path d="M1257 1780 c-9 -13 -14 -26 -12 -29 9 -8 38 26 33 40 -3 8 -10 5 -21 -11z"/>
<path d="M1630 1775 c13 -14 26 -23 28 -20 7 7 -29 45 -41 45 -6 0 0 -11 13 -25z"/>
<path d="M1310 1769 c-7 -11 -9 -24 -5 -27 7 -7 35 25 35 40 0 16 -19 8 -30 -13z"/>
<path d="M1366 1761 c-11 -12 -16 -24 -12 -28 9 -9 39 22 34 37 -2 7 -10 4 -22 -9z"/>
<path d="M1570 1771 c0 -13 29 -35 37 -28 7 8 -15 37 -28 37 -5 0 -9 -4 -9 -9z"/>
<path d="M1422 1758 c-6 -6 -12 -19 -12 -27 0 -13 2 -13 16 1 9 9 15 21 13 27 -3 9 -8 8 -17 -1z"/>
<path d="M1522 1748 c3 -7 13 -15 24 -17 16 -3 17 -1 5 13 -16 19 -34 21 -29 4z"/>
<path d="M1470 1736 c0 -9 7 -16 16 -16 9 0 14 5 12 12 -6 18 -28 21 -28 4z"/>
<path d="M300 2075 c-8 -9 -8 -15 -2 -15 12 0 26 19 19 26 -2 2 -10 -2 -17 -11z"/>
<path d="M2651 2077 c20 -16 79 -45 79 -39 0 9 -57 42 -72 42 -6 0 -9 -1 -7 -3z"/>
<path d="M2570 1945 c0 -31 4 -54 8 -51 12 7 12 95 1 102 -5 3 -9 -20 -9 -51z"/>
<path d="M2610 1924 c0 -47 4 -73 10 -69 6 3 10 37 10 76 0 39 -4 69 -10 69 -6 0 -10 -32 -10 -76z"/>
<path d="M2520 1939 c0 -31 4 -48 10 -44 6 3 10 26 10 51 0 24 -4 44 -10 44 -5 0 -10 -23 -10 -51z"/>
<path d="M2470 1946 c0 -19 -3 -41 -6 -50 -4 -11 -1 -16 10 -16 12 0 16 10 16 44 0 25 -4 48 -10 51 -6 4 -10 -8 -10 -29z"/>
<path d="M2656 1964 c-10 -27 -7 -204 4 -204 6 0 10 15 10 33 0 19 3 68 6 110 5 51 3 77 -3 77 -6 0 -14 -7 -17 -16z"/>
<path d="M2417 1953 c-10 -9 -9 -71 2 -77 5 -3 11 10 13 29 4 37 -3 60 -15 48z"/>
<path d="M2699 1903 c0 -32 -3 -80 -5 -106 -7 -59 4 -96 16 -56 12 42 12 219 0 219 -6 0 -10 -25 -11 -57z"/>
<path d="M2360 1890 c0 -22 5 -40 10 -40 6 0 10 18 10 40 0 22 -4 40 -10 40 -5 0 -10 -18 -10 -40z"/>
<path d="M2740 1856 c0 -37 4 -66 10 -66 6 0 10 26 10 59 0 33 -4 63 -10 66 -6 4 -10 -18 -10 -59z"/>
<path d="M2307 1903 c-11 -10 -8 -103 3 -103 6 0 10 25 10 55 0 56 -1 60 -13 48z"/>
<path d="M2250 1834 c0 -34 4 -53 10 -49 6 3 10 28 10 56 0 27 -4 49 -10 49 -5 0 -10 -25 -10 -56z"/>
<path d="M2200 1810 c0 -27 5 -50 10 -50 6 0 10 23 10 50 0 28 -4 50 -10 50 -5 0 -10 -22 -10 -50z"/>
<path d="M2157 1843 c-11 -11 -8 -163 3 -163 6 0 10 35 10 85 0 85 -1 91 -13 78z"/>
<path d="M2110 1775 c0 -30 5 -55 10 -55 6 0 10 25 10 55 0 30 -4 55 -10 55 -5 0 -10 -25 -10 -55z"/>
<path d="M2058 1713 c-3 -104 -2 -117 13 -108 12 8 12 205 0 205 -5 0 -11 -44 -13 -97z"/>
<path d="M2437 1779 c-114 -60 -139 -267 -37 -309 38 -16 91 -8 129 19 41 30 81 114 81 172 0 121 -73 171 -173 118z m21 -77 c4 -23 -33 -65 -51 -59 -20 6 -19 32 4 61 24 30 42 30 47 -2z"/>
<path d="M2010 1754 c0 -21 4 -33 10 -29 6 3 10 19 10 36 0 16 -4 29 -10 29 -5 0 -10 -16 -10 -36z"/>
<path d="M2778 1767 c-3 -15 -2 -30 3 -32 12 -8 16 8 9 35 l-6 25 -6 -28z"/>
<path d="M1960 1746 c0 -14 5 -26 10 -26 6 0 10 9 10 19 0 11 -4 23 -10 26 -6 4 -10 -5 -10 -19z"/>
<path d="M1910 1730 c0 -7 3 -10 7 -7 3 4 3 10 0 14 -4 3 -7 0 -7 -7z"/>
<path d="M2200 1715 c0 -8 5 -15 10 -15 6 0 10 7 10 15 0 8 -4 15 -10 15 -5 0 -10 -7 -10 -15z"/>
<path d="M2726 1715 c-3 -9 0 -15 9 -15 16 0 20 16 6 24 -5 3 -11 -1 -15 -9z"/>
<path d="M1861 1704 c0 -11 3 -14 6 -6 3 7 2 16 -1 19 -3 4 -6 -2 -5 -13z"/>
<path d="M1805 1698 c-4 -10 -4 -26 0 -35 8 -17 8 -17 12 0 3 9 3 25 0 35 -4 16 -4 16 -12 0z"/>
<path d="M2770 1676 c0 -9 5 -16 10 -16 6 0 10 4 10 9 0 6 -4 13 -10 16 -5 3 -10 -1 -10 -9z"/>
<path d="M1752 1649 c2 -19 8 -33 13 -31 15 3 12 55 -3 60 -10 3 -13 -5 -10 -29z"/>
<path d="M1710 1620 c0 -22 5 -40 10 -40 6 0 10 18 10 40 0 22 -4 40 -10 40 -5 0 -10 -18 -10 -40z"/>
<path d="M2105 1650 c3 -5 8 -10 11 -10 2 0 4 5 4 10 0 6 -5 10 -11 10 -5 0 -7 -4 -4 -10z"/>
<path d="M2155 1639 c-10 -15 3 -25 16 -12 7 7 7 13 1 17 -6 3 -14 1 -17 -5z"/>
<path d="M2760 1616 c0 -9 5 -16 10 -16 6 0 10 4 10 9 0 6 -4 13 -10 16 -5 3 -10 -1 -10 -9z"/>
<path d="M1660 1540 c0 -47 4 -80 10 -80 6 0 10 33 10 80 0 47 -4 80 -10 80 -6 0 -10 -33 -10 -80z"/>
<path d="M2697 1596 c-6 -16 2 -28 14 -20 12 7 11 34 0 34 -5 0 -11 -6 -14 -14z"/>
<path d="M2110 1574 c0 -9 5 -14 12 -12 18 6 21 28 4 28 -9 0 -16 -7 -16 -16z"/>
<path d="M1620 1485 c0 -57 4 -95 10 -95 6 0 10 38 10 95 0 57 -4 95 -10 95 -6 0 -10 -38 -10 -95z"/>
<path d="M1819 1550 c-93 -49 -135 -169 -91 -260 43 -87 159 -78 225 17 103 151 10 319 -134 243z m26 -70 c9 -30 -21 -72 -48 -68 -30 4 -32 29 -7 61 26 32 46 35 55 7z"/>
<path d="M2735 1541 c-7 -12 12 -24 25 -16 11 7 4 25 -10 25 -5 0 -11 -4 -15 -9z"/>
<path d="M1570 1466 c0 -63 19 -78 22 -16 0 22 1 45 2 52 1 6 -5 13 -11 16 -10 3 -13 -12 -13 -52z"/>
<path d="M2594 1431 c-89 -32 -184 -89 -184 -112 0 -16 29 -10 88 20 31 16 92 41 135 56 45 16 77 33 77 41 0 19 -53 17 -116 -5z"/>
<path d="M1527 1403 c-11 -10 -8 -93 3 -93 6 0 10 23 10 50 0 51 -1 55 -13 43z"/>
<path d="M1620 1346 c0 -9 5 -16 10 -16 6 0 10 4 10 9 0 6 -4 13 -10 16 -5 3 -10 -1 -10 -9z"/>
<path d="M2143 1310 c-73 -34 -79 -51 -32 -96 43 -41 51 -58 39 -89 -13 -35 -58 -75 -85 -75 -12 0 -32 11 -45 25 -26 28 -40 25 -40 -11 0 -37 33 -64 80 -64 35 0 47 7 86 46 33 33 49 43 57 35 6 -6 31 -11 55 -11 38 0 50 5 77 34 47 50 54 106 14 106 -13 0 -19 -7 -19 -23 0 -57 -90 -91 -112 -43 -9 21 -5 34 26 91 20 36 36 75 36 85 0 30 -63 26 -137 -10z"/>
<path d="M2549 1311 c-85 -19 -137 -47 -121 -63 7 -7 44 -4 116 11 58 11 120 21 138 21 42 0 63 13 55 34 -8 21 -86 20 -188 -3z"/>
<path d="M1562 1279 c2 -6 8 -10 13 -10 5 0 11 4 13 10 2 6 -4 11 -13 11 -9 0 -15 -5 -13 -11z"/>
<path d="M2334 1266 c-8 -22 3 -33 18 -18 9 9 9 15 0 24 -9 9 -13 7 -18 -6z"/>
<path d="M2277 1234 c-8 -8 1 -24 14 -24 5 0 9 7 9 15 0 15 -12 20 -23 9z"/>
<path d="M1500 1220 c0 -7 3 -10 7 -7 3 4 3 10 0 14 -4 3 -7 0 -7 -7z"/>
<path d="M1556 1215 c-3 -9 0 -15 9 -15 8 0 15 7 15 15 0 8 -4 15 -9 15 -5 0 -11 -7 -15 -15z"/>
<path d="M2433 1214 c-19 -8 -16 -32 5 -38 9 -2 75 -6 146 -8 93 -2 130 0 133 9 8 23 -43 36 -157 39 -63 2 -121 1 -127 -2z"/>
<path d="M2276 1181 c-4 -7 -5 -15 -2 -18 9 -9 19 4 14 18 -4 11 -6 11 -12 0z"/>
<path d="M1503 1163 c4 -3 10 -3 14 0 3 4 0 7 -7 7 -7 0 -10 -3 -7 -7z"/>
<path d="M1990 1145 c0 -8 5 -15 10 -15 6 0 10 7 10 15 0 8 -4 15 -10 15 -5 0 -10 -7 -10 -15z"/>
<path d="M2045 1149 c-10 -15 3 -25 16 -12 7 7 7 13 1 17 -6 3 -14 1 -17 -5z"/>
<path d="M1728 1140 c-88 -15 -158 -40 -158 -56 0 -24 24 -26 82 -9 31 8 100 21 154 28 75 9 99 16 99 27 0 18 -100 23 -177 10z"/>
<path d="M2082 1121 c4 -13 18 -16 19 -4 0 4 -5 9 -11 12 -7 2 -11 -2 -8 -8z"/>
<path d="M2040 1090 c0 -5 5 -10 10 -10 6 0 10 5 10 10 0 6 -4 10 -10 10 -5 0 -10 -4 -10 -10z"/>
<path d="M1822 1060 c-139 -50 -267 -129 -244 -152 7 -7 31 1 79 27 37 20 109 53 158 73 59 24 91 43 93 55 4 22 -18 22 -86 -3z"/>
<path d="M2740 993 c0 -43 -3 -109 -6 -148 -5 -57 -4 -68 6 -58 18 17 28 283 11 283 -7 0 -11 -27 -11 -77z"/>
<path d="M1829 973 c-146 -106 -205 -167 -175 -179 14 -5 59 29 209 158 31 27 57 53 57 59 0 20 -30 7 -91 -38z"/>
<path d="M2460 1003 c-38 -15 -82 -60 -106 -109 -34 -70 -32 -159 6 -199 49 -52 151 -25 203 54 56 84 59 181 7 233 -28 28 -71 36 -110 21z m0 -92 c0 -22 -38 -63 -53 -58 -21 7 -19 38 3 62 24 25 50 23 50 -4z"/>
<path d="M2660 959 c0 -5 5 -7 10 -4 6 3 10 8 10 11 0 2 -4 4 -10 4 -5 0 -10 -5 -10 -11z"/>
<path d="M2680 789 c0 -77 4 -118 10 -114 6 4 10 55 10 121 0 69 -4 114 -10 114 -6 0 -10 -47 -10 -121z"/>
<path d="M2638 825 c-10 -16 -10 -215 0 -215 5 0 12 34 14 75 5 77 -3 158 -14 140z"/>
<path d="M1840 744 c-129 -56 -181 -241 -89 -318 37 -31 76 -33 129 -6 74 38 127 138 115 220 -8 58 -28 88 -70 106 -41 17 -41 17 -85 -2z m-14 -117 c-9 -24 -19 -32 -37 -32 -34 0 -36 29 -4 61 21 20 29 23 40 14 12 -10 12 -17 1 -43z"/>
<path d="M2578 638 c-3 -68 3 -101 15 -81 11 18 12 146 0 150 -8 3 -12 -19 -15 -69z"/>
<path d="M1500 690 c0 -7 3 -10 7 -7 3 4 3 10 0 14 -4 3 -7 0 -7 -7z"/>
<path d="M1555 649 c-10 -15 1 -23 20 -15 9 3 13 10 10 16 -8 13 -22 13 -30 -1z"/>
<path d="M2239 573 c-1 -49 -3 -114 -5 -145 -5 -67 11 -87 20 -25 9 62 5 257 -5 257 -5 0 -10 -39 -10 -87z"/>
<path d="M2287 583 c-10 -101 -8 -193 3 -193 6 0 10 38 10 93 0 50 3 109 6 130 4 22 3 37 -3 37 -6 0 -13 -30 -16 -67z"/>
<path d="M2520 580 c0 -40 4 -70 10 -70 6 0 11 12 12 28 0 15 2 41 3 57 2 36 -4 55 -16 55 -5 0 -9 -31 -9 -70z"/>
<path d="M2188 498 c-3 -151 -2 -162 13 -153 12 8 12 295 0 295 -6 0 -11 -62 -13 -142z"/>
<path d="M1500 565 c0 -30 3 -55 8 -55 4 0 7 25 7 55 0 30 -3 55 -7 55 -5 0 -8 -25 -8 -55z"/>
<path d="M2140 594 c0 -8 5 -12 10 -9 6 4 8 11 5 16 -9 14 -15 11 -15 -7z"/>
<path d="M2470 545 c0 -37 4 -65 10 -65 6 0 10 22 10 49 0 27 3 56 6 65 4 11 1 16 -10 16 -13 0 -16 -12 -16 -65z"/>
<path d="M1600 590 c0 -5 5 -10 10 -10 6 0 10 5 10 10 0 6 -4 10 -10 10 -5 0 -10 -4 -10 -10z"/>
<path d="M2420 530 c0 -79 16 -95 22 -22 5 55 -1 92 -13 92 -5 0 -9 -31 -9 -70z"/>
<path d="M1545 579 c-10 -15 3 -25 16 -12 7 7 7 13 1 17 -6 3 -14 1 -17 -5z"/>
<path d="M2336 559 c-10 -49 -7 -149 4 -149 6 0 10 37 10 90 0 50 -2 90 -4 90 -2 0 -6 -14 -10 -31z"/>
<path d="M2050 415 c0 -83 4 -135 10 -135 6 0 10 52 10 135 0 83 -4 135 -10 135 -6 0 -10 -52 -10 -135z"/>
<path d="M2140 435 c0 -70 4 -115 10 -115 6 0 10 45 10 115 0 70 -4 115 -10 115 -6 0 -10 -45 -10 -115z"/>
<path d="M2380 490 c0 -38 4 -59 10 -55 6 3 10 28 10 55 0 27 -4 52 -10 55 -6 4 -10 -17 -10 -55z"/>
<path d="M1540 520 c0 -5 7 -10 15 -10 8 0 15 5 15 10 0 6 -7 10 -15 10 -8 0 -15 -4 -15 -10z"/>
<path d="M1628 350 c-3 -177 -2 -190 13 -190 5 0 9 78 9 180 0 108 -4 180 -10 180 -5 0 -10 -71 -12 -170z"/>
<path d="M1502 460 c0 -14 2 -19 5 -12 2 6 2 18 0 25 -3 6 -5 1 -5 -13z"/>
<path d="M1540 470 c0 -5 4 -10 9 -10 6 0 13 5 16 10 3 6 -1 10 -9 10 -9 0 -16 -4 -16 -10z"/>
<path d="M2099 464 c-7 -91 -7 -164 1 -164 5 0 12 10 15 23 7 28 1 134 -8 144 -4 3 -7 2 -8 -3z"/>
<path d="M2000 350 c0 -53 4 -90 10 -90 6 0 10 37 10 90 0 53 -4 90 -10 90 -6 0 -10 -37 -10 -90z"/>
<path d="M1500 401 c0 -5 5 -13 10 -16 6 -3 10 -2 10 4 0 5 -4 13 -10 16 -5 3 -10 2 -10 -4z"/>
<path d="M1676 339 c-11 -111 -8 -179 9 -179 13 0 15 20 15 120 0 128 -13 160 -24 59z"/>
<path d="M1588 361 c-11 -47 -10 -171 1 -171 14 0 16 20 11 115 -4 71 -7 83 -12 56z"/>
<path d="M1540 301 c0 -34 4 -61 10 -61 6 0 10 24 10 54 0 30 -4 58 -10 61 -6 4 -10 -17 -10 -54z"/>
<path d="M1905 295 c-7 -65 -2 -90 16 -80 12 8 12 145 0 145 -5 0 -12 -29 -16 -65z"/>
<path d="M1950 295 c0 -30 5 -55 10 -55 6 0 10 25 10 55 0 30 -4 55 -10 55 -5 0 -10 -25 -10 -55z"/>
<path d="M1860 270 c0 -40 4 -70 10 -70 6 0 10 30 10 70 0 40 -4 70 -10 70 -6 0 -10 -30 -10 -70z"/>
<path d="M1720 230 c0 -47 4 -80 10 -80 6 0 10 33 10 80 0 47 -4 80 -10 80 -6 0 -10 -33 -10 -80z"/>
<path d="M1770 303 c-1 -5 -3 -38 -6 -75 -4 -46 -2 -68 5 -68 7 0 11 28 11 75 0 41 -2 75 -5 75 -3 0 -5 -3 -5 -7z"/>
<path d="M1810 235 c0 -30 5 -55 10 -55 6 0 10 25 10 55 0 30 -4 55 -10 55 -5 0 -10 -25 -10 -55z"/>
<path d="M360 1930 c0 -40 4 -70 10 -70 6 0 10 30 10 70 0 40 -4 70 -10 70 -6 0 -10 -30 -10 -70z"/>
<path d="M400 1941 c0 -39 4 -51 16 -51 12 0 14 10 12 47 -4 66 -28 70 -28 4z"/>
<path d="M277 1973 c-15 -15 -2 -213 14 -213 8 0 5 208 -4 216 -2 2 -7 1 -10 -3z"/>
<path d="M450 1910 c0 -33 4 -60 10 -60 6 0 10 27 10 60 0 33 -4 60 -10 60 -6 0 -10 -27 -10 -60z"/>
<path d="M500 1890 c0 -33 4 -60 10 -60 6 0 10 27 10 60 0 33 -4 60 -10 60 -6 0 -10 -27 -10 -60z"/>
<path d="M230 1840 c0 -60 4 -100 10 -100 6 0 10 40 10 100 0 60 -4 100 -10 100 -6 0 -10 -40 -10 -100z"/>
<path d="M552 1884 c2 -27 8 -48 13 -46 15 3 12 85 -3 90 -10 3 -12 -8 -10 -44z"/>
<path d="M600 1841 c0 -64 12 -100 22 -68 10 28 3 130 -9 134 -10 4 -13 -14 -13 -66z"/>
<path d="M650 1821 c0 -39 5 -73 10 -76 6 -4 10 22 10 69 0 44 -4 76 -10 76 -6 0 -10 -30 -10 -69z"/>
<path d="M186 1862 c-9 -15 -5 -172 4 -172 11 0 22 162 11 173 -5 5 -11 5 -15 -1z"/>
<path d="M700 1771 c0 -56 4 -103 10 -106 6 -4 10 32 10 99 0 64 -4 106 -10 106 -6 0 -10 -40 -10 -99z"/>
<path d="M750 1780 c0 -45 4 -69 10 -65 6 3 10 33 10 65 0 32 -4 62 -10 65 -6 4 -10 -20 -10 -65z"/>
<path d="M790 1770 c0 -33 4 -60 10 -60 6 0 10 27 10 60 0 33 -4 60 -10 60 -6 0 -10 -27 -10 -60z"/>
<path d="M560 1799 c0 -11 5 -17 10 -14 6 3 10 13 10 21 0 8 -4 14 -10 14 -5 0 -10 -9 -10 -21z"/>
<path d="M840 1741 c0 -41 4 -71 10 -71 6 0 10 28 10 64 0 36 -4 68 -10 71 -6 4 -10 -20 -10 -64z"/>
<path d="M890 1681 c0 -63 4 -112 10 -116 6 -4 10 35 10 109 0 71 -4 116 -10 116 -6 0 -10 -43 -10 -109z"/>
<path d="M376 1749 c-37 -43 -37 -133 0 -207 55 -111 173 -132 218 -38 34 72 13 159 -56 229 -42 42 -52 47 -92 47 -37 0 -48 -5 -70 -31z m157 -67 c9 -10 18 -29 19 -43 3 -20 -1 -24 -22 -24 -32 0 -58 48 -40 71 16 18 23 18 43 -4z"/>
<path d="M940 1705 c0 -37 4 -65 10 -65 6 0 10 28 10 65 0 37 -4 65 -10 65 -6 0 -10 -28 -10 -65z"/>
<path d="M990 1670 c0 -40 4 -70 10 -70 6 0 10 30 10 70 0 40 -4 70 -10 70 -6 0 -10 -30 -10 -70z"/>
<path d="M657 1723 c-11 -10 -8 -43 3 -43 6 0 10 11 10 25 0 26 -2 29 -13 18z"/>
<path d="M280 1710 c0 -5 5 -10 10 -10 6 0 10 5 10 10 0 6 -4 10 -10 10 -5 0 -10 -4 -10 -10z"/>
<path d="M1040 1669 c0 -31 4 -48 10 -44 6 3 10 26 10 51 0 24 -4 44 -10 44 -5 0 -10 -23 -10 -51z"/>
<path d="M1086 1694 c-10 -25 -7 -84 4 -84 6 0 10 23 10 50 0 52 -4 61 -14 34z"/>
<path d="M230 1671 c0 -12 5 -21 10 -21 6 0 10 6 10 14 0 8 -4 18 -10 21 -5 3 -10 -3 -10 -14z"/>
<path d="M1130 1625 c0 -37 4 -65 10 -65 6 0 10 28 10 65 0 37 -4 65 -10 65 -6 0 -10 -28 -10 -65z"/>
<path d="M747 1654 c-8 -8 1 -24 14 -24 5 0 9 7 9 15 0 15 -12 20 -23 9z"/>
<path d="M1170 1580 c0 -47 4 -80 10 -80 6 0 10 33 10 80 0 47 -4 80 -10 80 -6 0 -10 -33 -10 -80z"/>
<path d="M1220 1520 c0 -67 4 -110 10 -110 6 0 10 43 10 110 0 67 -4 110 -10 110 -6 0 -10 -43 -10 -110z"/>
<path d="M220 1605 c0 -9 5 -15 11 -13 6 2 11 8 11 13 0 5 -5 11 -11 13 -6 2 -11 -4 -11 -13z"/>
<path d="M263 1613 c4 -3 10 -3 14 0 3 4 0 7 -7 7 -7 0 -10 -3 -7 -7z"/>
<path d="M702 1586 c1 -10 8 -17 13 -17 15 1 12 24 -3 29 -9 3 -13 -2 -10 -12z"/>
<path d="M1267 1567 c-9 -38 -7 -256 2 -261 13 -9 20 48 20 166 1 100 -10 146 -22 95z"/>
<path d="M207 1554 c-8 -8 1 -24 14 -24 5 0 9 7 9 15 0 15 -12 20 -23 9z"/>
<path d="M260 1540 c0 -7 3 -10 7 -7 3 4 3 10 0 14 -4 3 -7 0 -7 -7z"/>
<path d="M983 1540 c-37 -15 -63 -68 -63 -129 0 -67 28 -130 77 -170 115 -95 227 2 183 160 -13 46 -75 118 -117 135 -37 16 -49 16 -80 4z m136 -106 c25 -32 26 -47 6 -64 -30 -25 -80 45 -55 75 17 21 26 19 49 -11z"/>
<path d="M1310 1361 c0 -114 4 -181 10 -181 6 0 10 65 10 174 0 106 -4 177 -10 181 -7 4 -10 -57 -10 -174z"/>
<path d="M215 1490 c-3 -5 1 -10 9 -10 9 0 16 5 16 10 0 6 -4 10 -9 10 -6 0 -13 -4 -16 -10z"/>
<path d="M280 1450 c-19 -12 -3 -30 49 -51 25 -11 80 -40 122 -65 74 -43 109 -54 109 -34 0 18 -165 119 -244 150 -12 4 -28 5 -36 0z"/>
<path d="M1355 1438 c-5 -20 -1 -306 4 -325 1 -2 5 -3 10 -3 12 0 13 307 1 335 -7 18 -8 18 -15 -7z"/>
<path d="M190 1440 c0 -5 4 -10 9 -10 6 0 13 5 16 10 3 6 -1 10 -9 10 -9 0 -16 -4 -16 -10z"/>
<path d="M270 1303 c0 -17 9 -21 60 -27 33 -4 94 -16 136 -27 42 -11 79 -18 81 -15 27 26 -91 74 -204 83 -68 6 -73 5 -73 -14z"/>
<path d="M670 1305 c0 -9 14 -42 30 -75 34 -68 36 -82 14 -101 -22 -18 -66 7 -74 41 -3 14 -14 26 -23 28 -13 3 -17 -4 -17 -26 0 -59 76 -116 124 -94 20 9 28 6 56 -23 18 -18 44 -36 57 -40 31 -7 73 18 73 45 0 26 -17 34 -36 16 -23 -23 -39 -20 -68 15 -33 39 -33 54 5 96 43 49 36 72 -30 106 -61 30 -111 36 -111 12z"/>
<path d="M1400 1317 c-9 -9 1 -167 11 -167 5 0 9 17 8 38 -1 54 -13 135 -19 129z"/>
<path d="M191 1128 c0 -163 12 -311 19 -238 1 14 2 28 1 32 0 3 -1 92 -1 197 -1 110 -5 191 -11 191 -5 0 -9 -76 -8 -182z"/>
<path d="M233 1010 c2 -172 8 -255 15 -262 14 -14 16 87 5 345 -10 263 -25 201 -20 -83z"/>
<path d="M337 1203 c-10 -3 -17 -12 -15 -21 3 -15 17 -17 108 -13 100 3 136 13 124 32 -5 9 -184 11 -217 2z"/>
<path d="M282 911 c3 -217 7 -265 23 -249 10 9 -8 488 -17 488 -5 0 -8 -103 -6 -239z"/>
<path d="M1260 1135 c0 -8 5 -15 10 -15 6 0 10 7 10 15 0 8 -4 15 -10 15 -5 0 -10 -7 -10 -15z"/>
<path d="M1310 1110 c0 -22 5 -40 10 -40 6 0 10 18 10 40 0 22 -4 40 -10 40 -5 0 -10 -18 -10 -40z"/>
<path d="M960 1117 c0 -17 13 -22 90 -32 25 -3 78 -15 118 -27 52 -15 76 -18 84 -10 5 5 7 15 4 21 -11 17 -144 52 -223 58 -63 5 -73 4 -73 -10z"/>
<path d="M327 1084 c-10 -11 -9 -74 2 -74 6 0 12 3 15 8 7 12 -8 74 -17 66z"/>
<path d="M960 1056 c0 -8 48 -40 108 -72 59 -31 120 -66 135 -76 16 -12 35 -17 45 -13 27 11 -49 72 -160 128 -98 49 -128 57 -128 33z"/>
<path d="M1352 1061 c4 -13 18 -16 19 -4 0 4 -5 9 -11 12 -7 2 -11 -2 -8 -8z"/>
<path d="M413 1040 c-37 -15 -56 -66 -50 -130 8 -90 55 -165 120 -189 44 -17 64 -13 99 18 31 28 33 33 32 94 0 51 -6 74 -27 110 -46 78 -120 120 -174 97z m136 -111 c23 -37 17 -61 -13 -57 -23 3 -43 46 -33 72 10 24 25 19 46 -15z"/>
<path d="M956 1001 c-6 -9 8 -23 147 -150 63 -57 87 -68 87 -38 0 23 -193 197 -218 197 -6 0 -13 -4 -16 -9z"/>
<path d="M333 751 c2 -111 5 -145 16 -149 11 -4 12 18 6 124 -11 183 -24 198 -22 25z"/>
<path d="M776 853 c-11 -11 -6 -23 9 -23 8 0 15 4 15 9 0 13 -16 22 -24 14z"/>
<path d="M660 626 c0 -149 4 -227 11 -231 6 -4 12 -5 14 -3 8 8 -8 458 -17 458 -4 0 -8 -101 -8 -224z"/>
<path d="M1311 531 c2 -308 4 -351 21 -351 7 0 9 111 7 325 -3 248 -7 325 -16 325 -10 0 -12 -69 -12 -299z"/>
<path d="M810 780 c0 -5 5 -10 10 -10 6 0 10 5 10 10 0 6 -4 10 -10 10 -5 0 -10 -4 -10 -10z"/>
<path d="M966 758 c-14 -13 -31 -43 -37 -68 -38 -148 138 -325 234 -236 72 66 29 231 -78 300 -48 32 -86 33 -119 4z m158 -90 c17 -24 21 -64 8 -72 -17 -10 -52 25 -52 53 0 46 20 54 44 19z"/>
<path d="M1220 691 c0 -54 4 -91 10 -91 6 0 10 35 10 84 0 47 -4 88 -10 91 -6 4 -10 -27 -10 -84z"/>
<path d="M860 756 c0 -8 5 -18 10 -21 6 -3 10 3 10 14 0 12 -4 21 -10 21 -5 0 -10 -6 -10 -14z"/>
<path d="M1270 750 c0 -7 3 -10 7 -7 3 4 3 10 0 14 -4 3 -7 0 -7 -7z"/>
<path d="M1360 710 c0 -27 5 -50 10 -50 6 0 10 23 10 50 0 28 -4 50 -10 50 -5 0 -10 -22 -10 -50z"/>
<path d="M382 658 c2 -62 7 -93 16 -96 14 -4 16 63 6 142 -11 79 -25 50 -22 -46z"/>
<path d="M1270 445 c0 -225 3 -286 13 -282 8 2 12 30 11 93 -3 391 -5 464 -14 469 -7 4 -10 -96 -10 -280z"/>
<path d="M610 586 c0 -135 4 -166 22 -166 5 0 8 51 7 126 -2 137 -7 174 -20 174 -5 0 -9 -60 -9 -134z"/>
<path d="M821 694 c0 -11 3 -14 6 -6 3 7 2 16 -1 19 -3 4 -6 -2 -5 -13z"/>
<path d="M432 613 c2 -63 7 -88 17 -91 11 -4 13 10 8 79 -4 46 -7 87 -7 92 0 4 -5 7 -10 7 -7 0 -10 -32 -8 -87z"/>
<path d="M869 699 c0 -2 -3 -84 -6 -181 -6 -176 -2 -228 17 -228 11 0 6 397 -4 408 -3 3 -6 3 -7 1z"/>
<path d="M704 674 c3 -9 6 -81 6 -160 0 -89 4 -144 10 -144 6 0 10 60 10 160 0 140 -2 160 -16 160 -11 0 -14 -5 -10 -16z"/>
<path d="M480 586 c0 -74 10 -110 26 -93 8 8 -9 177 -17 177 -5 0 -9 -38 -9 -84z"/>
<path d="M527 662 c-9 -13 -8 -142 0 -179 11 -50 23 -18 22 60 -1 91 -10 139 -22 119z"/>
<path d="M572 558 c2 -69 7 -112 13 -110 6 1 9 9 9 17 -1 8 -2 58 -3 110 -1 58 -5 95 -11 95 -7 0 -10 -40 -8 -112z"/>
<path d="M755 660 c3 -5 8 -10 11 -10 2 0 4 5 4 10 0 6 -5 10 -11 10 -5 0 -7 -4 -4 -10z"/>
<path d="M817 663 c-3 -5 -4 -82 -3 -172 1 -119 4 -165 13 -168 9 -3 12 37 12 166 1 149 -6 200 -22 174z"/>
<path d="M1360 435 c0 -113 4 -205 9 -205 4 0 11 20 13 44 8 66 -3 366 -13 366 -5 0 -9 -92 -9 -205z"/>
<path d="M754 493 c2 -65 5 -124 5 -130 1 -7 6 -13 11 -13 6 0 10 37 10 93 0 105 -8 167 -22 167 -6 0 -7 -47 -4 -117z"/>
<path d="M1400 564 c0 -8 5 -12 10 -9 6 3 10 10 10 16 0 5 -4 9 -10 9 -5 0 -10 -7 -10 -16z"/>
<path d="M910 390 c0 -66 4 -120 9 -120 5 0 11 8 13 18 7 30 -4 222 -13 222 -5 0 -9 -54 -9 -120z"/>
<path d="M955 438 c-3 -8 -3 -40 -1 -73 2 -33 5 -72 5 -87 1 -16 6 -28 11 -28 13 0 13 187 0 195 -6 3 -12 0 -15 -7z"/>
<path d="M1222 303 c2 -113 6 -147 17 -151 11 -4 12 17 7 114 -3 66 -6 134 -6 152 0 17 -5 32 -10 32 -7 0 -10 -51 -8 -147z"/>
<path d="M1000 315 c0 -50 4 -85 10 -85 6 0 10 35 10 85 0 50 -4 85 -10 85 -6 0 -10 -35 -10 -85z"/>
<path d="M1046 389 c-12 -27 -2 -172 12 -177 9 -3 12 12 11 55 0 75 -13 144 -23 122z"/>
<path d="M1180 275 c0 -70 4 -115 10 -115 6 0 10 45 10 115 0 70 -4 115 -10 115 -6 0 -10 -45 -10 -115z"/>
<path d="M1090 285 c0 -57 4 -95 10 -95 6 0 10 38 10 95 0 57 -4 95 -10 95 -6 0 -10 -38 -10 -95z"/>
<path d="M1130 276 c0 -85 9 -122 24 -98 8 13 -6 192 -15 192 -5 0 -9 -42 -9 -94z"/>
<path d="M1394 1581 c39 -39 72 -68 75 -65 6 6 -98 112 -124 126 -11 6 11 -22 49 -61z"/>
<path d="M1426 1596 c45 -50 74 -73 74 -60 0 10 -103 114 -113 114 -5 0 12 -24 39 -54z"/>
<path d="M1504 1621 c16 -17 32 -29 34 -26 7 7 -18 34 -42 47 -16 8 -14 3 8 -21z"/>
<path d="M1440 1632 c0 -14 69 -76 77 -69 3 4 -9 23 -27 42 -33 34 -50 43 -50 27z"/>
<path d="M1450 196 c0 -2 7 -7 16 -10 8 -3 12 -2 9 4 -6 10 -25 14 -25 6z"/>
<path d="M1427 163 c-5 -7 6 -22 27 -38 l35 -27 22 21 c13 12 18 21 13 21 -6 0 -15 -5 -20 -10 -14 -14 -62 7 -66 29 -3 11 -6 12 -11 4z"/>
<path d="M1464 155 c11 -8 25 -15 30 -15 6 0 2 7 -8 15 -11 8 -25 15 -30 15 -6 0 -2 -7 8 -15z"/>
<path d="M1400 130 c0 -12 62 -51 69 -44 3 3 -2 10 -11 15 -9 5 -24 16 -32 24 -17 17 -26 19 -26 5z"/>
<path d="M1515 100 c-10 -11 -14 -20 -8 -20 5 0 18 9 28 20 10 11 14 20 8 20 -5 0 -18 -9 -28 -20z"/>
<path d="M2840 565 c0 -10 7 -15 18 -13 21 4 19 22 -2 26 -10 2 -16 -3 -16 -13z"/>
<path d="M180 555 c0 -17 2 -18 24 -9 23 9 20 24 -4 24 -11 0 -20 -7 -20 -15z"/>
<path d="M2770 560 c0 -5 9 -10 21 -10 11 0 17 5 14 10 -3 6 -13 10 -21 10 -8 0 -14 -4 -14 -10z"/>
<path d="M127 553 c-12 -11 -8 -23 8 -23 8 0 15 7 15 15 0 16 -12 20 -23 8z"/>
<path d="M2905 551 c-3 -5 -1 -12 5 -16 12 -7 30 2 30 16 0 12 -27 12 -35 0z"/>
<path d="M63 543 c4 -3 10 -3 14 0 3 4 0 7 -7 7 -7 0 -10 -3 -7 -7z"/>
<path d="M2946 503 c-11 -11 -6 -23 9 -23 8 0 15 4 15 9 0 13 -16 22 -24 14z"/>
<path d="M75 489 c-10 -15 1 -23 20 -15 9 3 13 10 10 16 -8 13 -22 13 -30 -1z"/>
<path d="M2856 491 c-3 -5 1 -11 9 -15 15 -6 29 7 18 18 -9 9 -21 8 -27 -3z"/>
<path d="M5 439 c-4 -6 -4 -13 -1 -16 8 -8 36 5 36 17 0 13 -27 13 -35 -1z"/>
<path d="M2840 440 c0 -5 9 -10 20 -10 11 0 20 5 20 10 0 6 -9 10 -20 10 -11 0 -20 -4 -20 -10z"/>
<path d="M88 433 c7 -3 16 -2 19 1 4 3 -2 6 -13 5 -11 0 -14 -3 -6 -6z"/>
<path d="M2936 413 c-11 -11 -6 -23 9 -23 8 0 15 4 15 9 0 13 -16 22 -24 14z"/>
<path d="M2845 400 c-3 -5 3 -10 15 -10 12 0 18 5 15 10 -3 6 -10 10 -15 10 -5 0 -12 -4 -15 -10z"/>
<path d="M35 379 c-4 -6 -5 -13 -2 -16 7 -7 27 6 27 18 0 12 -17 12 -25 -2z"/>
<path d="M105 359 c-4 -6 -5 -13 -2 -16 7 -7 27 6 27 18 0 12 -17 12 -25 -2z"/>
<path d="M2850 324 c0 -8 5 -12 10 -9 6 3 10 10 10 16 0 5 -4 9 -10 9 -5 0 -10 -7 -10 -16z"/>
<path d="M155 310 c-7 -12 12 -12 40 0 18 8 17 9 -7 9 -15 1 -30 -3 -33 -9z"/>
<path d="M2665 300 c-3 -5 3 -10 14 -10 12 0 21 5 21 10 0 6 -6 10 -14 10 -8 0 -18 -4 -21 -10z"/>
<path d="M2753 303 c4 -3 10 -3 14 0 3 4 0 7 -7 7 -7 0 -10 -3 -7 -7z"/>
<path d="M225 280 c-3 -5 1 -10 9 -10 8 0 18 5 21 10 3 6 -1 10 -9 10 -8 0 -18 -4 -21 -10z"/>
<path d="M2758 268 c9 -9 15 -9 24 0 9 9 7 12 -12 12 -19 0 -21 -3 -12 -12z"/>
<path d="M2657 254 c-13 -13 -7 -24 14 -24 11 0 19 5 17 12 -5 14 -22 21 -31 12z"/>
<path d="M333 213 c4 -3 10 -3 14 0 3 4 0 7 -7 7 -7 0 -10 -3 -7 -7z"/>
<path d="M2560 190 c0 -5 9 -10 20 -10 11 0 20 5 20 10 0 6 -9 10 -20 10 -11 0 -20 -4 -20 -10z"/>
<path d="M2492 129 c2 -6 8 -10 13 -10 5 0 11 4 13 10 2 6 -4 11 -13 11 -9 0 -15 -5 -13 -11z"/>
<path d="M530 100 c0 -5 4 -10 9 -10 6 0 13 5 16 10 3 6 -1 10 -9 10 -9 0 -16 -4 -16 -10z"/>
<path d="M2422 99 c2 -6 8 -10 13 -10 5 0 11 4 13 10 2 6 -4 11 -13 11 -9 0 -15 -5 -13 -11z"/>
<path d="M597 73 c-4 -3 -7 -11 -7 -17 0 -6 5 -5 12 2 6 6 9 14 7 17 -3 3 -9 2 -12 -2z"/>
<path d="M864 35 c-24 -18 -7 -19 26 0 16 9 19 14 9 15 -8 0 -24 -7 -35 -15z"/>
<path d="M2256 41 c-7 -11 22 -23 35 -15 5 3 7 10 4 15 -8 12 -32 12 -39 0z"/>
<path d="M2160 30 c0 -5 5 -10 10 -10 6 0 10 5 10 10 0 6 -4 10 -10 10 -5 0 -10 -4 -10 -10z"/>
<path d="M1018 3 c7 -3 16 -2 19 1 4 3 -2 6 -13 5 -11 0 -14 -3 -6 -6z"/>
<path d="M1958 3 c7 -3 16 -2 19 1 4 3 -2 6 -13 5 -11 0 -14 -3 -6 -6z"/>
</g>
</svg>